<?xml version="1.0" encoding="UTF-8"?>
<mxfile host="app.diagrams.net">
  <diagram id="bonmoja-arch" name="Architecture">
    <mxGraphModel dx="1060" dy="600" grid="1" gridSize="10" guides="1" tooltips="1" connect="1" arrows="1" fold="1" page="1" pageScale="1" pageWidth="827" pageHeight="1169" math="0" shadow="0">
      <root>
        <mxCell id="0"/>
        <mxCell id="1" parent="0"/>

        <!-- VPC -->
        <mxCell id="2" value="VPC" style="swimlane;fillColor=#dae8fc;strokeColor=#6c8ebf;" vertex="1" parent="1">
          <mxGeometry x="40" y="40" width="700" height="500" as="geometry"/>
        </mxCell>

        <!-- ALB -->
        <mxCell id="3" value="ALB" style="shape=ellipse;fillColor=#fff2cc;strokeColor=#d6b656;" vertex="1" parent="2">
          <mxGeometry x="300" y="60" width="80" height="50" as="geometry"/>
        </mxCell>

        <!-- ECS -->
        <mxCell id="4" value="ECS Fargate Service" style="shape=rectangle;rounded=1;fillColor=#d5e8d4;strokeColor=#82b366;" vertex="1" parent="2">
          <mxGeometry x="260" y="150" width="160" height="60" as="geometry"/>
        </mxCell>

        <!-- RDS -->
        <mxCell id="5" value="RDS Postgres" style="shape=cylinder;fillColor=#f8cecc;strokeColor=#b85450;" vertex="1" parent="2">
          <mxGeometry x="80" y="280" width="100" height="80" as="geometry"/>
        </mxCell>

        <!-- DynamoDB -->
        <mxCell id="6" value="DynamoDB" style="shape=hexagon;fillColor=#e1d5e7;strokeColor=#9673a6;" vertex="1" parent="2">
          <mxGeometry x="300" y="280" width="100" height="60" as="geometry"/>
        </mxCell>

        <!-- SQS -->
        <mxCell id="7" value="SQS Queue" style="shape=parallelogram;fillColor=#ffe6cc;strokeColor=#d79b00;" vertex="1" parent="2">
          <mxGeometry x="500" y="280" width="120" height="60" as="geometry"/>
        </mxCell>

        <!-- SNS -->
        <mxCell id="8" value="SNS Topic" style="shape=ellipse;fillColor=#f5f5f5;strokeColor=#666666;" vertex="1" parent="2">
          <mxGeometry x="520" y="400" width="80" height="50" as="geometry"/>
        </mxCell>

        <!-- ECR -->
        <mxCell id="9" value="ECR Repo" style="shape=rectangle;fillColor=#cce5ff;strokeColor=#4a90e2;" vertex="1" parent="2">
          <mxGeometry x="80" y="60" width="100" height="60" as="geometry"/>
        </mxCell>

        <!-- Edges -->
        <mxCell id="10" edge="1" parent="2" source="9" target="4">
          <mxGeometry relative="1" as="geometry"/>
        </mxCell>
        <mxCell id="11" edge="1" parent="2" source="3" target="4">
          <mxGeometry relative="1" as="geometry"/>
        </mxCell>
        <mxCell id="12" edge="1" parent="2" source="4" target="5">
          <mxGeometry relative="1" as="geometry"/>
        </mxCell>
        <mxCell id="13" edge="1" parent="2" source="4" target="6">
          <mxGeometry relative="1" as="geometry"/>
        </mxCell>
        <mxCell id="14" edge="1" parent="2" source="4" target="7">
          <mxGeometry relative="1" as="geometry"/>
        </mxCell>
        <mxCell id="15" edge="1" parent="2" source="7" target="8">
          <mxGeometry relative="1" as="geometry"/>
        </mxCell>
      </root>
    </mxGraphModel>
  </diagram>
</mxfile>
